<svg width="337" height="299" viewBox="0 0 337 299" fill="none" xmlns="http://www.w3.org/2000/svg">
<path d="M94.6 92.2139H228.4V181.214H250.7V86.6514C250.7 77.4837 243.174 69.9639 233.975 69.9639H89.025C79.8367 69.9639 72.3 77.4837 72.3 86.6514V181.214H94.6V92.2139ZM267.425 192.339H55.575C52.5262 192.339 50 194.877 50 197.901V203.464C50 215.719 60.0176 225.714 72.3 225.714H250.7C262.982 225.714 273 215.719 273 203.464V197.901C273 194.877 270.491 192.339 267.425 192.339ZM177.493 158.338C178.852 159.694 180.629 160.354 182.406 160.354C184.183 160.354 185.971 159.681 187.333 158.323L204.058 141.635C206.78 138.919 206.78 134.508 204.058 131.793L187.333 115.106C184.611 112.389 180.201 112.389 177.479 115.106C174.757 117.822 174.757 122.233 177.479 124.948L189.277 136.712L177.479 148.477C174.741 151.211 174.741 155.626 177.493 158.338ZM145.507 115.124C142.785 112.408 138.374 112.408 135.653 115.124L118.928 131.812C116.206 134.528 116.206 138.939 118.928 141.654L135.653 158.342C137.04 159.694 138.817 160.354 140.594 160.354C142.371 160.354 144.158 159.681 145.521 158.323C148.243 155.607 148.243 151.196 145.521 148.481L133.73 136.714L145.528 124.949C147.946 122.251 147.946 117.836 145.507 115.124Z" fill="black"/>
<path d="M313.58 156.087H320.384L316.982 147.857L313.58 156.087ZM316.982 134.875L298.429 141.559L301.268 166.329L316.982 175.125L332.696 166.329L335.536 141.559L316.982 134.875ZM328.607 165.584H324.268L321.929 159.708H312.054L309.714 165.584H305.366L316.982 139.322L328.607 165.584Z" fill="black"/>
<path d="M264 41L267.999 86.6098L285.943 92.625L304.001 86.6098L308 41H264ZM299.315 55.7385H278.254L278.724 61.4311H298.845L297.286 78.5318L286.069 81.6432V81.6777H285.943L274.633 78.5318L273.946 69.7971H279.411L279.812 74.1875L285.943 75.8584L292.096 74.1875L292.783 67.0199H273.659L272.193 50.2418H299.819L299.315 55.7385Z" fill="black"/>
<path d="M230.504 25.4256C230.188 25.3212 229.871 25.2225 229.555 25.1296C229.607 24.9149 229.654 24.7002 229.701 24.4855C230.422 21.0267 229.947 18.247 228.348 17.3301C226.807 16.4538 224.293 17.3649 221.75 19.5585C221.498 19.7732 221.252 19.9996 221.018 20.2259C220.859 20.075 220.695 19.9241 220.531 19.779C217.865 17.4345 215.193 16.448 213.594 17.3707C212.059 18.2528 211.602 20.87 212.246 24.1431C212.311 24.4681 212.381 24.7873 212.463 25.1122C212.088 25.2167 211.719 25.3328 211.373 25.4546C208.244 26.5282 206 28.2228 206 29.9754C206 31.786 208.391 33.6024 211.643 34.705C211.906 34.7921 212.17 34.8791 212.439 34.9546C212.352 35.3028 212.275 35.6452 212.205 35.9992C211.59 39.22 212.07 41.7734 213.605 42.6497C215.188 43.555 217.848 42.6265 220.438 40.3806C220.643 40.2007 220.848 40.015 221.053 39.8177C221.311 40.0672 221.58 40.3052 221.85 40.5373C224.357 42.6729 226.836 43.5376 228.365 42.6613C229.947 41.756 230.463 39.011 229.795 35.6684C229.742 35.413 229.684 35.1519 229.619 34.8849C229.807 34.8327 229.988 34.7747 230.17 34.7166C233.551 33.6082 236 31.815 236 29.9754C236 28.217 233.691 26.5108 230.504 25.4256ZM222.576 20.4986C224.756 18.6184 226.789 17.8814 227.715 18.4095C228.705 18.9724 229.086 21.2473 228.465 24.2359C228.424 24.4333 228.383 24.6248 228.33 24.8163C227.029 24.5261 225.711 24.3172 224.387 24.2011C223.625 23.1217 222.793 22.0887 221.891 21.1196C222.119 20.9049 222.342 20.7018 222.576 20.4986ZM215.797 32.9873C216.096 33.4921 216.4 33.997 216.723 34.4903C215.809 34.3916 214.9 34.2466 214.004 34.0551C214.262 33.2194 214.584 32.3547 214.959 31.4726C215.229 31.9833 215.504 32.4882 215.797 32.9873ZM214.021 26.0059C214.865 25.8202 215.762 25.6693 216.693 25.5533C216.383 26.035 216.078 26.5282 215.791 27.0273C215.504 27.5206 215.223 28.0255 214.959 28.5362C214.59 27.6715 214.279 26.8242 214.021 26.0059ZM215.627 30.0044C216.014 29.2035 216.436 28.4201 216.881 27.6483C217.326 26.8764 217.807 26.1278 218.311 25.3908C219.189 25.327 220.086 25.2921 221 25.2921C221.914 25.2921 222.816 25.327 223.689 25.3908C224.188 26.122 224.662 26.8706 225.113 27.6367C225.564 28.4027 225.986 29.1861 226.385 29.9812C225.992 30.782 225.57 31.5713 225.119 32.3489C224.674 33.1207 224.199 33.8694 223.701 34.6122C222.828 34.676 221.92 34.705 221 34.705C220.08 34.705 219.189 34.676 218.328 34.6238C217.818 33.8868 217.338 33.1323 216.887 32.3605C216.436 31.5887 216.02 30.8052 215.627 30.0044ZM226.209 32.9757C226.508 32.465 226.789 31.9485 227.064 31.4262C227.439 32.2677 227.768 33.1207 228.055 33.997C227.146 34.2001 226.227 34.3568 225.301 34.4613C225.617 33.9738 225.916 33.4747 226.209 32.9757ZM227.053 28.5362C226.777 28.0255 226.496 27.5148 226.203 27.0157C225.916 26.5224 225.617 26.035 225.307 25.5533C226.25 25.6693 227.152 25.826 227.996 26.0175C227.727 26.8764 227.41 27.7121 227.053 28.5362ZM221.012 22.0075C221.627 22.6691 222.207 23.3655 222.746 24.0851C221.586 24.0328 220.42 24.0328 219.26 24.0851C219.834 23.3364 220.426 22.64 221.012 22.0075ZM214.215 18.4501C215.199 17.8814 217.385 18.6938 219.688 20.7134C219.834 20.841 219.98 20.9803 220.133 21.1196C219.225 22.0887 218.387 23.1217 217.619 24.2011C216.295 24.3172 214.982 24.5203 213.682 24.8047C213.605 24.5087 213.541 24.2069 213.477 23.9052C212.926 21.0964 213.289 18.9782 214.215 18.4501ZM212.779 33.7475C212.533 33.6778 212.293 33.6024 212.053 33.5212C210.805 33.1323 209.387 32.5172 208.361 31.7105C207.77 31.3043 207.371 30.6776 207.26 29.9754C207.26 28.9134 209.111 27.5554 211.783 26.6327C212.117 26.5166 212.457 26.4122 212.797 26.3135C213.195 27.5728 213.676 28.8089 214.232 30.0044C213.67 31.2173 213.184 32.4708 212.779 33.7475ZM219.611 39.4347C218.645 40.311 217.525 41.0074 216.307 41.4832C215.656 41.7908 214.906 41.8198 214.238 41.5587C213.307 41.0248 212.92 38.9762 213.447 36.2197C213.512 35.8947 213.582 35.5697 213.664 35.2505C214.977 35.5291 216.301 35.7206 217.643 35.8193C218.416 36.9045 219.266 37.9432 220.174 38.9182C219.986 39.0981 219.799 39.2722 219.611 39.4347ZM221.047 38.0245C220.449 37.3861 219.852 36.6781 219.271 35.9179C219.834 35.9411 220.414 35.9527 221 35.9527C221.604 35.9527 222.195 35.9411 222.781 35.9121C222.242 36.6491 221.662 37.3513 221.047 38.0245ZM228.705 39.7655C228.652 40.4735 228.301 41.135 227.738 41.5819C226.807 42.1158 224.82 41.4194 222.676 39.5972C222.43 39.3883 222.184 39.1619 221.932 38.9298C222.828 37.949 223.654 36.9103 224.404 35.8193C225.746 35.709 227.082 35.5059 228.4 35.2099C228.459 35.4478 228.512 35.6858 228.559 35.9179C228.846 37.1714 228.893 38.4771 228.705 39.7655ZM229.771 33.527C229.607 33.5792 229.443 33.6314 229.273 33.6778C228.863 32.4127 228.359 31.1766 227.779 29.9754C228.342 28.7915 228.816 27.5728 229.215 26.3251C229.52 26.4122 229.812 26.505 230.094 26.5979C232.824 27.5264 234.74 28.9076 234.74 29.9638C234.74 31.1012 232.695 32.5694 229.771 33.527ZM221 32.6565C222.482 32.6565 223.684 31.4668 223.684 29.9986C223.684 28.5304 222.482 27.3407 221 27.3407C219.518 27.3407 218.316 28.5304 218.316 29.9986C218.316 31.4668 219.518 32.6565 221 32.6565Z" fill="black"/>
<path d="M0 143L2.72656 173.922L15 178L27.2734 173.922L30 143H0ZM24.4609 149.25L24.0859 152.945L15.0781 156.797L15.0547 156.805H23.7656L22.7656 168.258L15.0938 170.5L7.375 168.219L6.875 162.445H10.6953L10.9453 165.438L15.0547 166.477L19.3281 165.273L19.6172 160.461L6.625 160.422V160.414L6.60938 160.422L6.32812 156.805L15.0859 153.156L15.5938 152.945H5.99219L5.53906 149.25H24.4609Z" fill="black"/>
<path d="M282.464 247H256.536C254.584 247 253 248.584 253 250.536V276.464C253 278.416 254.584 280 256.536 280H282.464C284.416 280 286 278.416 286 276.464V250.536C286 248.584 284.416 247 282.464 247ZM270.958 272.737C270.958 275.949 269.073 277.415 266.325 277.415C263.843 277.415 262.406 276.133 261.67 274.579L264.196 273.054C264.683 273.916 265.125 274.645 266.193 274.645C267.209 274.645 267.857 274.247 267.857 272.693V262.152H270.958V272.737ZM278.295 277.415C275.415 277.415 273.551 276.044 272.645 274.247L275.172 272.789C275.835 273.871 276.704 274.674 278.229 274.674C279.51 274.674 280.335 274.033 280.335 273.142C280.335 272.081 279.496 271.706 278.074 271.08L277.301 270.748C275.061 269.798 273.581 268.597 273.581 266.071C273.581 263.743 275.356 261.975 278.118 261.975C280.092 261.975 281.507 262.66 282.523 264.458L280.107 266.004C279.577 265.054 279.002 264.679 278.111 264.679C277.205 264.679 276.63 265.253 276.63 266.004C276.63 266.933 277.205 267.308 278.538 267.89L279.312 268.222C281.949 269.349 283.429 270.505 283.429 273.098C283.429 275.882 281.234 277.415 278.295 277.415Z" fill="black"/>
<g clip-path="url(#clip0_30_16)">
<path d="M72.0665 36.7128C71.19 33.2124 69.5279 30.5729 65.9875 30.5729H61.4226V35.9425C61.4226 40.1112 57.8708 43.6229 53.8181 43.6229H41.6601C38.336 43.6229 35.581 46.455 35.581 49.7741V61.3062C35.581 64.5913 38.4498 66.5171 41.6601 67.4573C45.5078 68.5788 49.2076 68.7827 53.8181 67.4573C56.8804 66.5737 59.8971 64.7952 59.8971 61.3062V56.6956H47.7505V55.155H65.9875C69.5279 55.155 70.8371 52.6968 72.0665 49.0151C73.3415 45.2202 73.2846 41.5726 72.0665 36.7128ZM54.5808 59.7655C55.8444 59.7655 56.869 60.7964 56.869 62.0651C56.869 63.3452 55.8444 64.3761 54.5808 64.3761C53.3286 64.3761 52.2927 63.3339 52.2927 62.0651C52.304 60.7851 53.3286 59.7655 54.5808 59.7655ZM41.1023 42.105H53.2603C56.6413 42.105 59.3393 39.3296 59.3393 35.9538V24.4104C59.3393 21.1253 56.5616 18.6671 53.2603 18.112C49.1848 17.4437 44.7565 17.4776 41.1023 18.1233C35.9567 19.0296 35.0232 20.9214 35.0232 24.4218V29.0323H47.1927V30.5729H30.4583C26.9179 30.5729 23.8215 32.6913 22.8538 36.7128C21.7382 41.3233 21.6927 44.2007 22.8538 49.0151C23.719 52.5948 25.7795 55.155 29.3199 55.155H33.4978V49.6269C33.4978 45.628 36.9699 42.105 41.1023 42.105ZM40.3395 25.9511C39.0759 25.9511 38.0514 24.9202 38.0514 23.6515C38.0627 22.3714 39.0759 21.3405 40.3395 21.3405C41.5918 21.3405 42.6277 22.3827 42.6277 23.6515C42.6277 24.9202 41.6031 25.9511 40.3395 25.9511Z" fill="black"/>
</g>
<path d="M81.5 248.858C102.657 248.858 118.926 257.742 118.926 267.5C118.926 277.258 102.645 286.142 81.5 286.142C60.3428 286.142 44.0738 277.258 44.0738 267.5C44.0738 257.742 60.3552 248.858 81.5 248.858ZM81.5 246.791C59.6886 246.791 42 256.057 42 267.5C42 278.943 59.6886 288.209 81.5 288.209C103.311 288.209 121 278.943 121 267.5C121 256.057 103.311 246.791 81.5 246.791ZM68.9341 265.839C67.9589 270.822 64.515 270.306 60.2811 270.306L61.9722 261.618C66.6628 261.618 69.8475 261.114 68.9341 265.839ZM54.0228 279.103H58.553L59.6269 273.591C64.7002 273.591 67.8478 273.96 70.7609 271.241C73.9827 268.288 74.822 263.033 72.5261 260.4C71.3288 259.022 69.4031 258.345 66.7863 258.345H58.0592L54.0228 279.103ZM76.9452 252.821H81.4506L80.3767 258.333C84.265 258.333 87.8694 258.05 89.6098 259.65C91.4367 261.323 90.5603 263.464 88.5853 273.566H84.0181C85.9191 263.796 86.277 262.984 85.5858 262.246C84.9192 261.532 83.4009 261.68 79.7348 261.68L77.4142 273.566H72.9088L76.9452 252.821ZM104.336 265.839C103.348 270.896 99.8058 270.306 95.683 270.306L97.3741 261.618C102.089 261.618 105.249 261.114 104.336 265.839ZM89.4247 279.103H93.9672L95.0411 273.591C100.374 273.591 103.324 273.898 106.175 271.241C109.397 268.288 110.236 263.033 107.94 260.4C106.743 259.022 104.817 258.345 102.2 258.345H93.4734L89.4247 279.103Z" fill="black"/>
<defs>
<clipPath id="clip0_30_16">
<rect width="51" height="58" fill="white" transform="translate(22 14)"/>
</clipPath>
</defs>
</svg>
